<?xml version="1.0" encoding="UTF-8"?>
<!DOCTYPE svg PUBLIC "-//W3C//DTD SVG 1.1//EN" "http://www.w3.org/Graphics/SVG/1.1/DTD/svg11.dtd">
<!-- Creator: CorelDRAW 2017 -->
<svg xmlns="http://www.w3.org/2000/svg" xml:space="preserve" width="210mm" height="297mm" version="1.1" style="shape-rendering:geometricPrecision; text-rendering:geometricPrecision; image-rendering:optimizeQuality; fill-rule:evenodd; clip-rule:evenodd"
viewBox="0 0 21000 29700"
 xmlns:xlink="http://www.w3.org/1999/xlink">
 <defs>
  <style type="text/css">
   <![CDATA[
    .fil0 {fill:none}
    .fil3 {fill:#332D2A}
    .fil6 {fill:#574C49}
    .fil4 {fill:#D4713F}
    .fil7 {fill:#EB9063}
    .fil5 {fill:#F29D72}
    .fil1 {fill:#FFEAC9}
    .fil2 {fill:white}
   ]]>
  </style>
 </defs>
 <g id="Layer_x0020_1">
  <metadata id="CorelCorpID_0Corel-Layer"/>
  <polygon class="fil0" points="5404.55,5072.63 14061.73,5072.63 14061.73,11565.51 5404.55,11565.51 "/>
  <path class="fil1" d="M9409.4 5788.22c1779.88,0 3222.77,1442.88 3222.77,3222.77 0,521.76 -124.15,1014.47 -344.27,1450.46l-5757 0c-220.12,-435.99 -344.27,-928.7 -344.27,-1450.46 0,-1779.89 1442.89,-3222.77 3222.77,-3222.77z"/>
  <path class="fil2" d="M8676.17 10250.83c-831.54,-385.82 -1480.96,-726.86 -1800.13,-1663.36 -35.37,-103.78 -10.12,-211.58 67.64,-288.87 77.77,-77.28 185.73,-101.86 289.29,-65.84l186.04 64.69 236.99 62.97c140.98,37.46 283.8,67.66 427.87,90.51 139.11,22.06 249.45,128.99 275.88,267.34 21.97,115.06 -18.03,231.32 -101.86,308.48 76.08,107.78 174.78,202.42 279.98,255.49 144.48,72.88 316.27,66.43 454.86,-17.12l-316.56 985.71z"/>
  <path class="fil2" d="M7575.7 8431.62l236.99 62.97c140.98,37.46 283.79,67.66 427.87,90.51 139.11,22.06 249.45,128.99 275.88,267.34 26.42,138.34 -36.75,278.41 -157.94,350.18l-770.72 -200.62 -12.08 -570.38z"/>
  <path class="fil2" d="M6950.35 6772.73l54.86 -32c101.37,-59.13 221.82,-76.35 335.7,-48 217.95,54.27 424.11,148 608.27,276.57 196.81,137.4 253.73,403.68 130.29,609.53 -170.78,284.79 -247.55,616.12 -219.43,947l-785.69 -173.71 -0.57 -9.15 -123.43 -1570.24z"/>
  <path class="fil3" d="M6904.3 6782.59l54.86 -32c101.37,-59.13 221.82,-76.35 335.7,-48 217.95,54.27 424.11,148 608.27,276.57 196.81,137.4 253.73,403.68 130.29,609.53 -170.78,284.79 -247.55,616.12 -219.43,947l-785.69 -173.71 -0.57 -9.15 -123.43 -1570.24z"/>
  <path class="fil3" d="M7066.58 6780.3l-206.23 -13.71c-181.49,-12.07 -341.1,119.03 -364.52,299.42 -28.65,220.66 -83.34,437.15 -162.94,644.95 -87.45,228.3 -22.88,486.91 161.62,647.3 184.5,160.4 449.59,188.36 663.5,70l-91.43 -1647.96z"/>
  <ellipse class="fil4" cx="9476.54" cy="10461.45" rx="3478.46" ry="70.97"/>
  <path class="fil5" d="M6860.35 8313.9l44.54 -97.41c89.93,-196.7 132.22,-411.83 123.43,-627.93l436.56 43.47 -43.43 150.85c-69.9,242.79 -11.81,504.44 154.25,694.84l-715.35 -163.82z"/>
  <path class="fil4" d="M7169.4 7602.61l295.48 29.42 -43.43 150.85c-47.82,166.1 -35.72,341.03 29.86,495.93 -192.45,-81.02 -326.47,-262.04 -326.47,-472.36 0,-72.38 15.9,-141.28 44.56,-203.84z"/>
  <path class="fil4" d="M7580.99 8412.34c-99.64,242.81 -143.12,339.88 -140.54,608.67 4.12,428 -293.19,1365.99 -146.14,1440.44l2014.27 0 0 -122.18 -382.6 65.2c-471.27,-109.06 -894.42,-232.37 -1201.06,-390.21l241.38 -1224.57 -385.31 -377.35z"/>
  <path class="fil3" d="M7529.53 8418.14l236.99 62.97c140.98,37.46 283.79,67.66 427.87,90.51 139.11,22.06 249.45,128.99 275.88,267.34 26.42,138.34 -36.75,278.41 -157.94,350.18l-770.72 -200.62 -12.08 -570.38z"/>
  <path class="fil6" d="M8607.2 10250.83c-831.54,-385.82 -1480.96,-726.86 -1800.13,-1663.36 -35.37,-103.78 -10.12,-211.58 67.64,-288.87 77.77,-77.28 185.73,-101.86 289.29,-65.84l186.04 64.69 236.99 62.97c140.98,37.46 283.8,67.66 427.87,90.51 139.11,22.06 249.45,128.99 275.88,267.34 21.97,115.06 -18.03,231.32 -101.86,308.48 76.08,107.78 174.78,202.42 279.98,255.49 144.48,72.88 316.27,66.43 454.86,-17.12l-316.56 985.71z"/>
  <path class="fil3" d="M8217.48 8564.93c36.45,42.98 62.23,95.4 73.3,153.34 21.97,115.06 -18.03,231.32 -101.86,308.48 -274.53,109.49 -508.33,-2.05 -613.22,-223.11 160.69,235.58 739.42,179.79 641.78,-238.71z"/>
  <path class="fil4" d="M8977.66 9222.95l1450.58 -1190.44c153.95,-67.94 1829.99,-672.84 2273.53,-891.47 67.3,-33.17 127.41,-55.93 199.79,-75.65l295.04 -80.38c120.08,-39.06 231.38,-101.2 327.65,-182.91 27.91,-23.69 51.45,-52.07 69.57,-83.87 10.59,-18.6 30.65,-29.75 52.04,-28.93 21.39,0.81 40.53,13.46 49.68,32.81 9.14,19.35 6.75,42.17 -6.19,59.22 -16.66,21.93 -30.49,45.86 -41.16,71.24 -13.56,32.28 -24.8,65.48 -33.63,99.36 -18.17,69.77 -72.84,124.14 -142.7,141.93 -111.17,28.32 -201.39,109.37 -241.43,216.89 -12.67,34.04 -25.3,68.09 -37.9,102.16 -22.5,60.89 -76.55,104.53 -140.81,113.7 -64.25,9.17 -128.36,-17.62 -166.99,-69.77 -11.37,-15.36 -24.11,-29.43 -37.97,-42.1 -26.4,-24.13 -57.73,-35.47 -93.46,-33.81 -35.72,1.66 -65.87,15.84 -89.93,42.3l-482.29 530.61c-272.91,300.24 -730.19,436.13 -1121.43,328.55 -109.34,-30.05 -105.09,66.72 -179.83,152.01 -418.63,477.73 -450.03,977.85 -740.4,1306.23 -66.77,75.5 -117.91,163.47 -150.49,258.84 -112.47,329.26 -454.62,521.19 -794.23,445.55 -339.61,-75.64 -567.96,-394.64 -530.06,-740.51 22.03,-201.08 156.83,-353.38 313.02,-481.56z"/>
  <path class="fil2" d="M12597.67 9048.84l262.24 340.38c77.06,100.03 172.92,184.05 282.18,247.34 31.67,18.35 66.31,31.01 102.35,37.43 21.07,3.74 38.3,18.9 44.7,39.32 6.4,20.42 0.9,42.7 -14.26,57.8 -15.16,15.1 -37.46,20.51 -57.86,14.03 -26.25,-8.34 -53.43,-13.34 -80.92,-14.89 -34.96,-1.95 -70,-1.41 -104.88,1.63 -71.82,6.28 -141.38,-26.99 -181.57,-86.84 -63.96,-95.24 -170.57,-153.06 -285.28,-154.73 -36.32,-0.53 -72.64,-1.01 -108.96,-1.45 -64.9,-0.79 -124.14,-37.08 -154.33,-94.54 -28.8,-54.83 -26.7,-120.52 4.99,-173.24 15.61,-25.96 17.13,-55.44 4.27,-82.87 -12.86,-27.42 -36.49,-45.11 -66.43,-49.71 -431.36,-66.26 -985.95,-145.51 -1385.65,-380.51 -199.79,-117.45 -329.76,-473.72 -481.77,-633.83l-87.78 159.08c-154.59,280.19 -206.32,645.3 -307.18,949 -77.4,233.05 -214.7,400.06 -257.83,641.81 -45.71,256.22 -241.36,459.63 -495.62,515.26 -254.26,55.63 -516.98,-47.49 -665.51,-261.22 -148.52,-213.74 -132.93,-485.12 -12.78,-714.83l186.51 -356.55c354.24,-677.22 928.98,-1213.26 1629.21,-1519.51 113.85,-49.79 384.95,229.87 458.04,338.74 388.37,292.19 1071.94,725.58 1600.23,1069.24 99.34,64.63 88.52,56.9 173.89,113.66z"/>
  <path class="fil5" d="M12590.16 9116.08l262.24 340.38c77.06,100.03 172.92,184.05 282.18,247.34 31.67,18.35 66.31,31.01 102.35,37.43 21.07,3.74 38.3,18.9 44.7,39.32 6.4,20.42 0.9,42.7 -14.26,57.8 -15.16,15.1 -37.46,20.51 -57.86,14.03 -26.25,-8.34 -53.43,-13.34 -80.92,-14.89 -34.96,-1.95 -70,-1.41 -104.88,1.63 -71.82,6.28 -141.38,-26.99 -181.57,-86.84 -63.96,-95.24 -170.57,-153.06 -285.28,-154.73 -36.32,-0.53 -72.64,-1.01 -108.96,-1.45 -64.9,-0.79 -124.14,-37.08 -154.33,-94.54 -28.8,-54.83 -26.7,-120.52 4.99,-173.24 15.61,-25.96 17.13,-55.44 4.27,-82.87 -12.86,-27.42 -36.49,-45.11 -66.43,-49.71 -431.36,-66.26 -985.95,-145.51 -1385.65,-380.51 -199.79,-117.45 -329.76,-473.72 -481.77,-633.83l-87.78 159.08c-154.59,280.19 -206.32,645.3 -307.18,949 -77.4,233.05 -214.7,400.06 -257.83,641.81 -45.71,256.22 -241.36,459.63 -495.62,515.26 -254.26,55.63 -516.98,-47.49 -665.51,-261.22 -148.52,-213.74 -132.93,-485.12 -12.78,-714.83l186.51 -356.55c354.24,-677.22 928.98,-1213.26 1629.21,-1519.51 113.85,-49.79 384.95,229.87 458.04,338.74 388.37,292.19 1071.94,725.58 1600.23,1069.24 99.34,64.63 88.52,56.9 173.89,113.66z"/>
  <path class="fil7" d="M10566.75 7675.44c103.59,80.33 208.01,196.26 249.29,257.74l241.96 295.55c314.27,383.87 694.61,708.48 1123.08,958.53 -422.63,-64.76 -947.52,-146.96 -1330.33,-372.03 -199.8,-117.46 -329.76,-473.72 -481.78,-633.83l-87.77 159.08c-154.59,280.19 -206.32,645.3 -307.19,949 -77.39,233.05 -214.69,400.06 -257.82,641.81 -45.71,256.23 -241.36,459.63 -495.62,515.27 -254.26,55.62 -516.98,-47.5 -665.51,-261.23 -21.56,-31.03 -39.64,-63.29 -54.47,-96.46l143.77 70.77c164.46,80.96 360.1,64.92 509.18,-41.73 149.08,-106.65 227.44,-286.64 203.94,-468.42 -91.21,-705.58 318.96,-1380.1 987.4,-1623.73 144.94,-52.82 236.07,-196.7 221.87,-350.32z"/>
  <ellipse class="fil5" transform="matrix(0.51832 -0 0.181656 0.51832 7090.58 8655.15)" rx="478.45" ry="690.12"/>
  <path class="fil5" d="M6823.38 8412.34c-99.64,242.81 -143.12,339.88 -140.53,608.67 4.11,428 -293.2,1365.99 -146.14,1440.44l1631.66 0 0 -56.98c-471.26,-109.06 -894.42,-232.37 -1201.06,-390.21l241.38 -1224.57 -385.31 -377.35z"/>
  <path class="fil5" d="M7294.22 6952.78c214.38,0 332.46,71.66 373.28,169.86 41.62,100.12 37.32,214.63 84.43,374.12 75.75,256.39 -75.8,533.76 -163.96,574.9 -179,83.52 -562.46,-293.48 -559.65,-483.1 1.49,-100.6 323.63,-147.59 323.63,-328.18 0,-97.31 -130.68,-307.6 -57.73,-307.6z"/>
  <path class="fil2" d="M7672.28 7797.71c-26.06,67.55 -56.69,115.63 -80.85,130.94 -64.81,41.08 -159.85,-27.8 -239.48,-130.94l320.33 0z"/>
 </g>
</svg>
