<?xml version="1.0" encoding="utf-8"?>
<!-- Generator: Adobe Illustrator 24.1.2, SVG Export Plug-In . SVG Version: 6.00 Build 0)  -->
<svg version="1.1" id="Layer_1" xmlns="http://www.w3.org/2000/svg" xmlns:xlink="http://www.w3.org/1999/xlink" x="0px" y="0px"
	 viewBox="0 0 218.4 134.5" style="enable-background:new 0 0 218.4 134.5;" xml:space="preserve">
<style type="text/css">
	.st0{fill:none;}
	.st1{fill-rule:evenodd;clip-rule:evenodd;fill:#FFEAC9;}
	.st2{fill-rule:evenodd;clip-rule:evenodd;fill:#FFFFFF;}
	.st3{fill-rule:evenodd;clip-rule:evenodd;fill:#332D2A;}
	.st4{fill-rule:evenodd;clip-rule:evenodd;fill:#D4713F;}
	.st5{fill-rule:evenodd;clip-rule:evenodd;fill:#F29D72;}
	.st6{fill-rule:evenodd;clip-rule:evenodd;fill:#574C49;}
	.st7{fill-rule:evenodd;clip-rule:evenodd;fill:#EB9063;}
</style>
<g id="Layer_x0020_1">
	<polygon class="st0" points="-16.8,-20.3 228.6,-20.3 228.6,163.8 -16.8,163.8 	"/>
	<path class="st1" d="M96.7,0c50.5,0,91.4,40.9,91.4,91.4c0,14.8-3.5,28.8-9.8,41.1H15.1c-6.2-12.4-9.8-26.3-9.8-41.1
		C5.3,40.9,46.2,0,96.7,0z"/>
	<path class="st2" d="M75.9,126.5c-23.6-10.9-42-20.6-51-47.2c-1-2.9-0.3-6,1.9-8.2c2.2-2.2,5.3-2.9,8.2-1.9l5.3,1.8l6.7,1.8
		c4,1.1,8,1.9,12.1,2.6c3.9,0.6,7.1,3.7,7.8,7.6c0.6,3.3-0.5,6.6-2.9,8.7c2.2,3.1,5,5.7,7.9,7.2c4.1,2.1,9,1.9,12.9-0.5L75.9,126.5
		L75.9,126.5z"/>
	<path class="st2" d="M44.7,74.9l6.7,1.8c4,1.1,8,1.9,12.1,2.6c3.9,0.6,7.1,3.7,7.8,7.6c0.7,3.9-1,7.9-4.5,9.9l-21.8-5.7L44.7,74.9
		L44.7,74.9z"/>
	<path class="st2" d="M27,27.9l1.6-0.9c2.9-1.7,6.3-2.2,9.5-1.4c6.2,1.5,12,4.2,17.2,7.8c5.6,3.9,7.2,11.4,3.7,17.3
		c-4.8,8.1-7,17.5-6.2,26.8l-22.3-4.9l0-0.3L27,27.9L27,27.9z"/>
	<path class="st3" d="M25.7,28.2l1.6-0.9c2.9-1.7,6.3-2.2,9.5-1.4c6.2,1.5,12,4.2,17.2,7.8c5.6,3.9,7.2,11.4,3.7,17.3
		c-4.8,8.1-7,17.5-6.2,26.8L29.2,73l0-0.3L25.7,28.2L25.7,28.2z"/>
	<path class="st3" d="M30.3,28.1l-5.8-0.4c-5.1-0.3-9.7,3.4-10.3,8.5c-0.8,6.3-2.4,12.4-4.6,18.3C7,61,8.8,68.3,14.1,72.9
		c5.2,4.5,12.7,5.3,18.8,2L30.3,28.1z"/>
	<ellipse class="st4" cx="98.6" cy="132.5" rx="98.6" ry="2"/>
	<path class="st5" d="M24.4,71.6l1.3-2.8c2.5-5.6,3.7-11.7,3.5-17.8l12.4,1.2l-1.2,4.3c-2,6.9-0.3,14.3,4.4,19.7L24.4,71.6z"/>
	<path class="st4" d="M33.2,51.4l8.4,0.8l-1.2,4.3c-1.4,4.7-1,9.7,0.8,14.1c-5.5-2.3-9.3-7.4-9.3-13.4
		C31.9,55.2,32.4,53.2,33.2,51.4L33.2,51.4z"/>
	<path class="st4" d="M44.9,74.4c-2.8,6.9-4.1,9.6-4,17.3c0.1,12.1-8.3,38.7-4.1,40.8h57.1V129L83,130.9c-13.4-3.1-25.4-6.6-34-11.1
		l6.8-34.7L44.9,74.4z"/>
	<path class="st3" d="M43.4,74.5l6.7,1.8c4,1.1,8,1.9,12.1,2.6c3.9,0.6,7.1,3.7,7.8,7.6c0.7,3.9-1,7.9-4.5,9.9l-21.8-5.7L43.4,74.5
		L43.4,74.5z"/>
	<path class="st6" d="M74,126.5c-23.6-10.9-42-20.6-51-47.2c-1-2.9-0.3-6,1.9-8.2c2.2-2.2,5.3-2.9,8.2-1.9l5.3,1.8l6.7,1.8
		c4,1.1,8,1.9,12.1,2.6c3.9,0.6,7.1,3.7,7.8,7.6c0.6,3.3-0.5,6.6-2.9,8.7c2.2,3.1,5,5.7,7.9,7.2c4.1,2.1,9,1.9,12.9-0.5L74,126.5
		L74,126.5z"/>
	<path class="st3" d="M62.9,78.7c1,1.2,1.8,2.7,2.1,4.3c0.6,3.3-0.5,6.6-2.9,8.7c-7.8,3.1-14.4-0.1-17.4-6.3
		C49.3,92.2,65.7,90.6,62.9,78.7z"/>
	<path class="st4" d="M84.5,97.4l41.1-33.7c4.4-1.9,51.9-19.1,64.4-25.3c1.9-0.9,3.6-1.6,5.7-2.1l8.4-2.3c3.4-1.1,6.6-2.9,9.3-5.2
		c0.8-0.7,1.5-1.5,2-2.4c0.3-0.5,0.9-0.8,1.5-0.8c0.6,0,1.1,0.4,1.4,0.9c0.3,0.5,0.2,1.2-0.2,1.7c-0.5,0.6-0.9,1.3-1.2,2
		c-0.4,0.9-0.7,1.9-1,2.8c-0.5,2-2.1,3.5-4,4c-3.2,0.8-5.7,3.1-6.8,6.1c-0.4,1-0.7,1.9-1.1,2.9c-0.6,1.7-2.2,3-4,3.2
		c-1.8,0.3-3.6-0.5-4.7-2c-0.3-0.4-0.7-0.8-1.1-1.2c-0.7-0.7-1.6-1-2.6-1c-1,0-1.9,0.4-2.5,1.2l-13.7,15
		c-7.7,8.5-20.7,12.4-31.8,9.3c-3.1-0.9-3,1.9-5.1,4.3c-11.9,13.5-12.8,27.7-21,37c-1.9,2.1-3.3,4.6-4.3,7.3
		c-3.2,9.3-12.9,14.8-22.5,12.6c-9.6-2.1-16.1-11.2-15-21C76.2,105.3,80,101,84.5,97.4L84.5,97.4z"/>
	<path class="st2" d="M187.1,92.4l7.4,9.6c2.2,2.8,4.9,5.2,8,7c0.9,0.5,1.9,0.9,2.9,1.1c0.6,0.1,1.1,0.5,1.3,1.1s0,1.2-0.4,1.6
		c-0.4,0.4-1.1,0.6-1.6,0.4c-0.7-0.2-1.5-0.4-2.3-0.4c-1-0.1-2,0-3,0c-2,0.2-4-0.8-5.1-2.5c-1.8-2.7-4.8-4.3-8.1-4.4
		c-1,0-2.1,0-3.1,0c-1.8,0-3.5-1.1-4.4-2.7c-0.8-1.6-0.8-3.4,0.1-4.9c0.4-0.7,0.5-1.6,0.1-2.3c-0.4-0.8-1-1.3-1.9-1.4
		c-12.2-1.9-27.9-4.1-39.3-10.8c-5.7-3.3-9.3-13.4-13.7-18l-2.5,4.5c-4.4,7.9-5.8,18.3-8.7,26.9c-2.2,6.6-6.1,11.3-7.3,18.2
		c-1.3,7.3-6.8,13-14,14.6c-7.2,1.6-14.7-1.3-18.9-7.4c-4.2-6.1-3.8-13.8-0.4-20.3l5.3-10.1c10-19.2,26.3-34.4,46.2-43.1
		c3.2-1.4,10.9,6.5,13,9.6c11,8.3,30.4,20.6,45.4,30.3C185,91,184.7,90.8,187.1,92.4L187.1,92.4z"/>
	<path class="st5" d="M186.9,94.3l7.4,9.6c2.2,2.8,4.9,5.2,8,7c0.9,0.5,1.9,0.9,2.9,1.1c0.6,0.1,1.1,0.5,1.3,1.1s0,1.2-0.4,1.6
		c-0.4,0.4-1.1,0.6-1.6,0.4c-0.7-0.2-1.5-0.4-2.3-0.4c-1-0.1-2,0-3,0c-2,0.2-4-0.8-5.1-2.5c-1.8-2.7-4.8-4.3-8.1-4.4
		c-1,0-2.1,0-3.1,0c-1.8,0-3.5-1.1-4.4-2.7c-0.8-1.6-0.8-3.4,0.1-4.9c0.4-0.7,0.5-1.6,0.1-2.3c-0.4-0.8-1-1.3-1.9-1.4
		c-12.2-1.9-27.9-4.1-39.3-10.8c-5.7-3.3-9.3-13.4-13.7-18l-2.5,4.5c-4.4,7.9-5.8,18.3-8.7,26.9c-2.2,6.6-6.1,11.3-7.3,18.2
		c-1.3,7.3-6.8,13-14,14.6c-7.2,1.6-14.7-1.3-18.9-7.4c-4.2-6.1-3.8-13.8-0.4-20.3l5.3-10.1c10-19.2,26.3-34.4,46.2-43.1
		c3.2-1.4,10.9,6.5,13,9.6c11,8.3,30.4,20.6,45.4,30.3C184.7,92.9,184.4,92.7,186.9,94.3L186.9,94.3z"/>
	<path class="st7" d="M129.5,53.5c2.9,2.3,5.9,5.6,7.1,7.3l6.9,8.4c8.9,10.9,19.7,20.1,31.8,27.2c-12-1.8-26.9-4.2-37.7-10.5
		c-5.7-3.3-9.3-13.4-13.7-18l-2.5,4.5c-4.4,7.9-5.8,18.3-8.7,26.9c-2.2,6.6-6.1,11.3-7.3,18.2c-1.3,7.3-6.8,13-14,14.6
		c-7.2,1.6-14.7-1.3-18.9-7.4c-0.6-0.9-1.1-1.8-1.5-2.7l4.1,2c4.7,2.3,10.2,1.8,14.4-1.2s6.4-8.1,5.8-13.3c-2.6-20,9-39.1,28-46
		C127.3,61.9,129.9,57.9,129.5,53.5L129.5,53.5z"/>
	<ellipse transform="matrix(0.8638 -0.5038 0.5038 0.8638 -36.725 26.6686)" class="st5" cx="31" cy="81.3" rx="6.4" ry="11.1"/>
	<path class="st5" d="M23.4,74.4c-2.8,6.9-4.1,9.6-4,17.3c0.1,12.1-8.3,38.7-4.1,40.8h46.3v-1.6c-13.4-3.1-25.4-6.6-34-11.1
		l6.8-34.7L23.4,74.4L23.4,74.4z"/>
	<path class="st5" d="M36.7,33c6.1,0,9.4,2,10.6,4.8c1.2,2.8,1.1,6.1,2.4,10.6c2.1,7.3-2.1,15.1-4.6,16.3C40,67.1,29.1,56.4,29.2,51
		c0-2.9,9.2-4.2,9.2-9.3C38.4,39,34.7,33,36.7,33L36.7,33z"/>
	<path class="st2" d="M47.5,57c-0.7,1.9-1.6,3.3-2.3,3.7c-1.8,1.2-4.5-0.8-6.8-3.7H47.5z"/>
</g>
</svg>
