<svg xmlns="http://www.w3.org/2000/svg" xmlns:xlink="http://www.w3.org/1999/xlink" version="1.1" x="0px" y="0px" viewBox="0 0 10 10" enable-background="new 0 0 10 10" xml:space="preserve" style="width: 32px"><path fill="#c5d79b" d="M5.925,2.461c-0.955-0.955-2.509-0.955-3.464,0c-0.954,0.955-0.954,2.509,0,3.463c0.925,0.925,2.411,0.955,3.371,0.089  l0.239,0.238C6.033,6.355,6.057,6.478,6.141,6.562l1.606,1.606c0.116,0.116,0.305,0.116,0.421,0c0.116-0.117,0.116-0.305,0-0.422  L6.562,6.141C6.478,6.057,6.356,6.033,6.251,6.07L6.013,5.832C6.879,4.872,6.849,3.386,5.925,2.461z M2.672,5.714  c-0.838-0.839-0.838-2.204,0-3.042c0.839-0.838,2.204-0.838,3.042,0c0.839,0.838,0.839,2.203,0,3.042  C4.876,6.553,3.511,6.553,2.672,5.714z"/></svg>